<svg xmlns="http://www.w3.org/2000/svg" width="920" height="560" viewBox="0 0 920 560">
  <defs>
    <linearGradient id="bg" x1="0" y1="0" x2="1" y2="1">
      <stop offset="0%" stop-color="#fce4ec"/><stop offset="50%" stop-color="#ede7f6"/><stop offset="100%" stop-color="#e0f7fa"/>
    </linearGradient>
    <linearGradient id="c1" x1="0" y1="0" x2="0" y2="1"><stop offset="0%" stop-color="#fff"/><stop offset="100%" stop-color="#f3e5f5"/></linearGradient>
    <linearGradient id="c2" x1="0" y1="0" x2="0" y2="1"><stop offset="0%" stop-color="#fff"/><stop offset="100%" stop-color="#e8f5e9"/></linearGradient>
    <linearGradient id="c3" x1="0" y1="0" x2="0" y2="1"><stop offset="0%" stop-color="#fff"/><stop offset="100%" stop-color="#fff3e0"/></linearGradient>
    <linearGradient id="b1" x1="0" y1="0" x2="0" y2="1"><stop offset="0%" stop-color="#f48fb1"/><stop offset="100%" stop-color="#ce93d8"/></linearGradient>
    <linearGradient id="b2" x1="0" y1="0" x2="0" y2="1"><stop offset="0%" stop-color="#80cbc4"/><stop offset="100%" stop-color="#81d4fa"/></linearGradient>
    <linearGradient id="b3" x1="0" y1="0" x2="0" y2="1"><stop offset="0%" stop-color="#ffcc80"/><stop offset="100%" stop-color="#ef9a9a"/></linearGradient>
    <linearGradient id="b4" x1="0" y1="0" x2="0" y2="1"><stop offset="0%" stop-color="#a5d6a7"/><stop offset="100%" stop-color="#80cbc4"/></linearGradient>
    <filter id="s"><feDropShadow dx="0" dy="4" stdDeviation="8" flood-color="#c5cae9" flood-opacity=".25"/></filter>
    <filter id="gl"><feGaussianBlur stdDeviation="6" result="b"/><feMerge><feMergeNode in="b"/><feMergeNode in="SourceGraphic"/></feMerge></filter>
  </defs>
  <!-- BG -->
  <rect width="920" height="560" rx="26" fill="url(#bg)"/>
  <!-- Ambient orbs -->
  <circle cx="100" cy="70" r="65" fill="#f8bbd0" opacity=".18"><animate attributeName="cy" values="70;50;70" dur="7s" repeatCount="indefinite"/><animate attributeName="r" values="65;78;65" dur="7s" repeatCount="indefinite"/></circle>
  <circle cx="820" cy="490" r="85" fill="#b2dfdb" opacity=".15"><animate attributeName="cy" values="490;465;490" dur="9s" repeatCount="indefinite"/><animate attributeName="r" values="85;98;85" dur="9s" repeatCount="indefinite"/></circle>
  <circle cx="460" cy="40" r="45" fill="#d1c4e9" opacity=".16"><animate attributeName="cx" values="460;490;460" dur="8s" repeatCount="indefinite"/></circle>
  <circle cx="740" cy="90" r="38" fill="#ffe0b2" opacity=".2"><animate attributeName="cy" values="90;70;90" dur="6s" repeatCount="indefinite"/></circle>
  <circle cx="300" cy="500" r="50" fill="#bbdefb" opacity=".12"><animate attributeName="cx" values="300;325;300" dur="10s" repeatCount="indefinite"/></circle>
  <!-- Top nav -->
  <rect x="30" y="28" width="860" height="48" rx="14" fill="#fff" opacity=".65" filter="url(#s)"/>
  <circle cx="58" cy="52" r="7" fill="#f48fb1" opacity=".65"/><circle cx="78" cy="52" r="7" fill="#ffcc80" opacity=".65"/><circle cx="98" cy="52" r="7" fill="#a5d6a7" opacity=".65"/>
  <rect x="130" y="44" width="110" height="16" rx="8" fill="#e1bee7" opacity=".35"/><rect x="258" y="44" width="75" height="16" rx="8" fill="#b2dfdb" opacity=".35"/><rect x="350" y="44" width="90" height="16" rx="8" fill="#ffe0b2" opacity=".35"/>
  <rect x="790" y="40" width="70" height="24" rx="12" fill="#ce93d8" opacity=".2"/>
  <!-- Sidebar -->
  <rect x="30" y="90" width="195" height="440" rx="18" fill="#fff" opacity=".5" filter="url(#s)"/>
  <rect x="50" y="112" width="155" height="13" rx="7" fill="#f8bbd0" opacity=".45"><animate attributeName="opacity" values=".45;.75;.45" dur="3s" repeatCount="indefinite"/></rect>
  <rect x="50" y="140" width="125" height="11" rx="6" fill="#d1c4e9" opacity=".35"/><rect x="50" y="164" width="140" height="11" rx="6" fill="#b2dfdb" opacity=".35"/><rect x="50" y="188" width="105" height="11" rx="6" fill="#ffe0b2" opacity=".35"/><rect x="50" y="212" width="145" height="11" rx="6" fill="#bbdefb" opacity=".35"/>
  <rect x="50" y="248" width="155" height="13" rx="7" fill="#c8e6c9" opacity=".45"><animate attributeName="opacity" values=".45;.75;.45" dur="4s" repeatCount="indefinite"/></rect>
  <rect x="50" y="276" width="118" height="11" rx="6" fill="#f8bbd0" opacity=".3"/><rect x="50" y="300" width="138" height="11" rx="6" fill="#d1c4e9" opacity=".3"/><rect x="50" y="324" width="95" height="11" rx="6" fill="#b2dfdb" opacity=".3"/>
  <rect x="50" y="360" width="155" height="13" rx="7" fill="#ffe0b2" opacity=".45"><animate attributeName="opacity" values=".45;.7;.45" dur="5s" repeatCount="indefinite"/></rect>
  <rect x="50" y="388" width="125" height="11" rx="6" fill="#bbdefb" opacity=".3"/><rect x="50" y="412" width="140" height="11" rx="6" fill="#c8e6c9" opacity=".3"/><rect x="50" y="436" width="110" height="11" rx="6" fill="#e1bee7" opacity=".3"/>
  <rect x="50" y="472" width="155" height="13" rx="7" fill="#bbdefb" opacity=".4"/>
  <rect x="50" y="500" width="130" height="11" rx="6" fill="#f8bbd0" opacity=".25"/>
  <!-- Stat card 1 -->
  <g filter="url(#s)"><rect x="250" y="90" width="200" height="115" rx="16" fill="url(#c1)" opacity=".82"><animate attributeName="y" values="90;83;90" dur="5.5s" repeatCount="indefinite"/></rect>
  <circle cx="284" cy="120" r="15" fill="#f48fb1" opacity=".3"/><rect x="308" y="113" width="95" height="13" rx="7" fill="#f8bbd0" opacity=".45"/>
  <rect x="276" y="146" width="55" height="20" rx="8" fill="#ce93d8" opacity=".25"/><rect x="276" y="174" width="135" height="7" rx="4" fill="#e1bee7" opacity=".2"/>
  <rect x="276" y="186" width="95" height="7" rx="4" fill="#f8bbd0" opacity=".15"/></g>
  <!-- Stat card 2 -->
  <g filter="url(#s)"><rect x="470" y="90" width="200" height="115" rx="16" fill="url(#c2)" opacity=".82"><animate attributeName="y" values="90;81;90" dur="6.5s" repeatCount="indefinite"/></rect>
  <circle cx="504" cy="120" r="15" fill="#80cbc4" opacity=".3"/><rect x="528" y="113" width="95" height="13" rx="7" fill="#b2dfdb" opacity=".45"/>
  <rect x="496" y="146" width="65" height="20" rx="8" fill="#80cbc4" opacity=".25"/><rect x="496" y="174" width="125" height="7" rx="4" fill="#b2dfdb" opacity=".2"/>
  <rect x="496" y="186" width="85" height="7" rx="4" fill="#c8e6c9" opacity=".15"/></g>
  <!-- Stat card 3 -->
  <g filter="url(#s)"><rect x="690" y="90" width="200" height="115" rx="16" fill="url(#c3)" opacity=".82"><animate attributeName="y" values="90;79;90" dur="7.5s" repeatCount="indefinite"/></rect>
  <circle cx="724" cy="120" r="15" fill="#ffcc80" opacity=".3"/><rect x="748" y="113" width="95" height="13" rx="7" fill="#ffe0b2" opacity=".45"/>
  <rect x="716" y="146" width="50" height="20" rx="8" fill="#ffcc80" opacity=".25"/><rect x="716" y="174" width="115" height="7" rx="4" fill="#ffe0b2" opacity=".2"/>
  <rect x="716" y="186" width="80" height="7" rx="4" fill="#ffcc80" opacity=".15"/></g>
  <!-- Bar Chart Panel -->
  <rect x="250" y="224" width="410" height="306" rx="18" fill="#fff" opacity=".55" filter="url(#s)"/>
  <rect x="276" y="244" width="130" height="13" rx="7" fill="#d1c4e9" opacity=".45"/>
  <rect x="340" y="244" width="50" height="13" rx="7" fill="#f8bbd0" opacity=".0"/>
  <!-- Grid lines -->
  <g stroke="#e8eaf6" stroke-width="1" opacity=".4"><line x1="296" y1="285" x2="630" y2="285"/><line x1="296" y1="325" x2="630" y2="325"/><line x1="296" y1="365" x2="630" y2="365"/><line x1="296" y1="405" x2="630" y2="405"/><line x1="296" y1="445" x2="630" y2="445"/><line x1="296" y1="485" x2="630" y2="485"/></g>
  <!-- Animated bars -->
  <rect x="312" y="485" width="34" rx="7" fill="url(#b1)" opacity=".72" height="0"><animate attributeName="height" values="0;148" dur="1s" fill="freeze" begin=".2s"/><animate attributeName="y" values="485;337" dur="1s" fill="freeze" begin=".2s"/></rect>
  <rect x="362" y="485" width="34" rx="7" fill="url(#b2)" opacity=".72" height="0"><animate attributeName="height" values="0;175" dur="1s" fill="freeze" begin=".4s"/><animate attributeName="y" values="485;310" dur="1s" fill="freeze" begin=".4s"/></rect>
  <rect x="412" y="485" width="34" rx="7" fill="url(#b3)" opacity=".72" height="0"><animate attributeName="height" values="0;120" dur="1s" fill="freeze" begin=".6s"/><animate attributeName="y" values="485;365" dur="1s" fill="freeze" begin=".6s"/></rect>
  <rect x="462" y="485" width="34" rx="7" fill="url(#b4)" opacity=".72" height="0"><animate attributeName="height" values="0;195" dur="1s" fill="freeze" begin=".8s"/><animate attributeName="y" values="485;290" dur="1s" fill="freeze" begin=".8s"/></rect>
  <rect x="512" y="485" width="34" rx="7" fill="url(#b1)" opacity=".72" height="0"><animate attributeName="height" values="0;158" dur="1s" fill="freeze" begin="1s"/><animate attributeName="y" values="485;327" dur="1s" fill="freeze" begin="1s"/></rect>
  <rect x="562" y="485" width="34" rx="7" fill="url(#b2)" opacity=".72" height="0"><animate attributeName="height" values="0;182" dur="1s" fill="freeze" begin="1.2s"/><animate attributeName="y" values="485;303" dur="1s" fill="freeze" begin="1.2s"/></rect>
  <!-- Donut Panel -->
  <rect x="680" y="224" width="210" height="306" rx="18" fill="#fff" opacity=".55" filter="url(#s)"/>
  <rect x="704" y="244" width="110" height="13" rx="7" fill="#ffe0b2" opacity=".45"/>
  <!-- Donut ring -->
  <circle cx="785" cy="338" r="52" fill="none" stroke="#f8bbd0" stroke-width="15" stroke-dasharray="105 222" stroke-linecap="round" opacity=".65"><animateTransform attributeName="transform" type="rotate" from="0 785 338" to="360 785 338" dur="22s" repeatCount="indefinite"/></circle>
  <circle cx="785" cy="338" r="52" fill="none" stroke="#b2dfdb" stroke-width="15" stroke-dasharray="82 245" stroke-dashoffset="-105" stroke-linecap="round" opacity=".65"><animateTransform attributeName="transform" type="rotate" from="0 785 338" to="360 785 338" dur="28s" repeatCount="indefinite"/></circle>
  <circle cx="785" cy="338" r="52" fill="none" stroke="#d1c4e9" stroke-width="15" stroke-dasharray="65 262" stroke-dashoffset="-187" stroke-linecap="round" opacity=".65"><animateTransform attributeName="transform" type="rotate" from="0 785 338" to="360 785 338" dur="34s" repeatCount="indefinite"/></circle>
  <circle cx="785" cy="338" r="30" fill="#fff" opacity=".5"/>
  <!-- Legend -->
  <circle cx="710" cy="418" r="5" fill="#f48fb1" opacity=".55"/><rect x="724" y="412" width="95" height="10" rx="5" fill="#f8bbd0" opacity=".3"/>
  <circle cx="710" cy="440" r="5" fill="#80cbc4" opacity=".55"/><rect x="724" y="434" width="75" height="10" rx="5" fill="#b2dfdb" opacity=".3"/>
  <circle cx="710" cy="462" r="5" fill="#ce93d8" opacity=".55"/><rect x="724" y="456" width="105" height="10" rx="5" fill="#d1c4e9" opacity=".3"/>
  <circle cx="710" cy="484" r="5" fill="#ffcc80" opacity=".55"/><rect x="724" y="478" width="85" height="10" rx="5" fill="#ffe0b2" opacity=".3"/>
  <!-- Sparkles -->
  <circle cx="195" cy="170" r="3" fill="#f48fb1" opacity="0"><animate attributeName="opacity" values="0;.85;0" dur="3s" repeatCount="indefinite"/><animate attributeName="cy" values="170;155;170" dur="3s" repeatCount="indefinite"/></circle>
  <circle cx="490" cy="26" r="2.5" fill="#81d4fa" opacity="0"><animate attributeName="opacity" values="0;.7;0" dur="4s" repeatCount="indefinite" begin="1s"/></circle>
  <circle cx="870" cy="190" r="2" fill="#ce93d8" opacity="0"><animate attributeName="opacity" values="0;.9;0" dur="2.5s" repeatCount="indefinite" begin=".5s"/></circle>
  <circle cx="670" cy="55" r="2.8" fill="#a5d6a7" opacity="0"><animate attributeName="opacity" values="0;.6;0" dur="3.5s" repeatCount="indefinite" begin="2s"/></circle>
  <circle cx="340" cy="540" r="2.5" fill="#ffcc80" opacity="0"><animate attributeName="opacity" values="0;.8;0" dur="4s" repeatCount="indefinite" begin="1.5s"/></circle>
  <circle cx="560" cy="540" r="2" fill="#f48fb1" opacity="0"><animate attributeName="opacity" values="0;.7;0" dur="3.2s" repeatCount="indefinite" begin="2.5s"/></circle>
</svg>
