<?xml version="1.0" encoding="UTF-8"?>
<svg version="1.1" xmlns="http://www.w3.org/2000/svg" width="350" height="350">
<path d="M0 0 C1.44746068 -0.00271961 2.89491997 -0.00628591 4.34237671 -0.01062012 C8.22457148 -0.01963045 12.10665832 -0.01624773 15.98885465 -0.00986195 C20.08086483 -0.00474333 24.17286672 -0.00950939 28.26487732 -0.01263428 C35.13119134 -0.01625663 41.9974621 -0.01152014 48.86376953 -0.00195312 C56.7669412 0.00893242 64.67000965 0.0053981 72.57317883 -0.00560594 C79.39828095 -0.01472325 86.22335226 -0.01594262 93.04845852 -0.0107286 C97.10752897 -0.00763376 101.16655114 -0.00713035 105.22561836 -0.01380157 C109.0433376 -0.01963973 112.86092556 -0.01546178 116.67863083 -0.00401306 C118.72260617 -0.00016906 120.7665928 -0.00599614 122.81056213 -0.01226807 C141.75705251 0.07312594 158.62536781 3.13095516 172.98999023 16.21582031 C186.57641346 30.24471326 189.31665579 48.05335219 189.22973633 66.83862305 C189.2338139 68.34342832 189.23916235 69.8482306 189.2456665 71.35302734 C189.2592064 75.3965413 189.25409701 79.43982261 189.24452925 83.48334002 C189.23686136 87.74305457 189.24399796 92.00275099 189.24868774 96.26246643 C189.25412534 103.41305059 189.24700702 110.56354139 189.23266602 117.71411133 C189.21634962 125.94390459 189.22162874 134.17347471 189.23814523 142.40326256 C189.25182481 149.50777369 189.25364816 156.61221822 189.24582922 163.71673828 C189.24118725 167.94299058 189.24043066 172.16913853 189.25043869 176.39538383 C189.25920082 180.37237955 189.25292074 184.34909186 189.23575592 188.32605743 C189.23183955 189.77267808 189.23284011 191.2193232 189.23954391 192.66593361 C189.31940697 211.67403179 185.91075044 228.96794066 172.22045898 243.07519531 C157.78542656 256.3250855 141.49892324 258.56989234 122.52636719 258.53344727 C121.01377615 258.537804 119.50118731 258.54299033 117.98860168 258.54893494 C113.90977123 258.56223609 109.83103395 258.56291335 105.75218606 258.56037164 C102.33083782 258.55929538 98.90950793 258.56420218 95.48816365 258.56897706 C87.40550636 258.5800426 79.32289556 258.58052702 71.24023438 258.57446289 C62.94180099 258.56843187 54.64353753 258.58071873 46.34513313 258.60203296 C39.1863232 258.61973436 32.02756693 258.62563675 24.86873597 258.62239522 C20.60830349 258.62059499 16.3479921 258.62309045 12.08757973 258.63710976 C8.0745227 258.64982263 4.06172733 258.64761909 0.04867363 258.63469887 C-1.4104306 258.63236208 -2.86955403 258.63496136 -4.32863617 258.64332199 C-23.63730676 258.74583952 -41.60537232 255.66520045 -55.97875977 241.69238281 C-69.09701546 227.04601489 -71.30590243 210.29832937 -71.31958008 191.4519043 C-71.32421566 189.95783874 -71.3292413 188.46377435 -71.33462524 186.9697113 C-71.34768207 182.92798488 -71.35418128 178.88627502 -71.3586359 174.84453082 C-71.36157818 172.31229163 -71.36568516 169.78005685 -71.37014008 167.2478199 C-71.38379878 159.30445104 -71.39347277 151.36109241 -71.39734197 143.41771263 C-71.40181555 134.28682579 -71.41933776 125.15608919 -71.44834256 116.02524799 C-71.47005182 108.94210526 -71.48005119 101.8590045 -71.48138309 94.7758289 C-71.48242474 90.55729027 -71.4881944 86.33889316 -71.5062027 82.12038994 C-71.5228437 78.14514555 -71.52476241 74.17014663 -71.51606369 70.19487953 C-71.51530174 68.74825247 -71.51952262 67.30161132 -71.52952194 65.85501862 C-71.65265886 46.90634918 -68.24525922 29.52318479 -54.60375977 15.44238281 C-38.96439024 1.47687552 -20.05927025 -0.06164652 0 0 Z M-19.15844727 66.25878906 C-19.76150845 69.6885122 -19.68376066 73.08916776 -19.64428711 76.56347656 C-19.6480838 77.61102112 -19.65188049 78.65856567 -19.65579224 79.737854 C-19.66320674 83.20346943 -19.64180174 86.66824803 -19.61938477 90.13378906 C-19.61700078 92.5398753 -19.61609492 94.94596342 -19.61660767 97.35205078 C-19.61347809 102.39595178 -19.59690026 107.43956886 -19.57006836 112.48339844 C-19.53608856 118.95339607 -19.52843971 125.42308155 -19.52995872 131.89315796 C-19.52941522 136.86192818 -19.51845119 141.83062997 -19.50395584 146.79937744 C-19.49758513 149.18523643 -19.49364831 151.57110318 -19.49216843 153.95697021 C-19.48783841 157.28948205 -19.47034339 160.62166108 -19.44897461 163.95410156 C-19.44988098 164.94331604 -19.45078735 165.93253052 -19.45172119 166.95172119 C-19.44319122 167.86016785 -19.43466125 168.7686145 -19.4258728 169.70458984 C-19.42252111 170.49213654 -19.41916943 171.27968323 -19.41571617 172.09109497 C-19.12162969 174.56900627 -18.49853301 176.15886918 -17.15844727 178.25878906 C-12.28589898 180.58364823 -7.4451876 180.56661831 -2.15844727 180.69628906 C14.51290656 181.3677475 31.09768403 185.33570331 45.47436523 194.02441406 C47.95973278 195.3204143 50.09949413 195.76582191 52.84155273 196.25878906 C52.91172067 181.90711788 52.96437935 167.55547341 52.99698925 153.20366573 C53.01264087 146.53943633 53.03387026 139.87534464 53.06787109 133.21118164 C53.10048196 126.77915375 53.11840955 120.34723671 53.12618446 113.91513252 C53.13172482 111.4619529 53.14254373 109.00877929 53.1587429 106.5556469 C53.18053958 103.11793815 53.18351865 99.68068672 53.18212891 96.24291992 C53.19291473 95.23015488 53.20370056 94.21738983 53.21481323 93.17393494 C53.1839837 86.11995832 52.42950797 81.05105655 47.46655273 75.69628906 C32.63334599 64.6440958 12.97401334 62.13732839 -4.97094727 61.94628906 C-5.89842773 61.91728516 -6.8259082 61.88828125 -7.78149414 61.85839844 C-8.67545898 61.85001953 -9.56942383 61.84164062 -10.49047852 61.83300781 C-11.29203369 61.81842529 -12.09358887 61.80384277 -12.91943359 61.78881836 C-16.23921343 62.48564272 -17.15673932 63.49020486 -19.15844727 66.25878906 Z M67.16186523 79.12988281 C64.86481671 82.83370365 64.71640841 86.75750147 64.72129822 91.03608704 C64.71992355 91.9685173 64.71854889 92.90094757 64.71713257 93.8616333 C64.72072784 94.87223816 64.72432312 95.88284302 64.72802734 96.92407227 C64.72788132 97.99769516 64.72773529 99.07131805 64.72758484 100.17747498 C64.72828077 103.7215274 64.7360583 107.26552708 64.74389648 110.80957031 C64.7457618 113.26865103 64.74718517 115.72773213 64.7481842 118.18681335 C64.75200046 124.65586373 64.76182318 131.12489161 64.77288818 137.59393311 C64.78312144 144.19640804 64.78768593 150.79888661 64.79272461 157.40136719 C64.80344622 170.35385073 64.82031947 183.3063187 64.84155273 196.25878906 C69.15768077 195.49459821 72.33999612 194.08712944 76.21655273 192.00878906 C91.35062211 184.17442146 106.53380951 181.05563216 123.49438477 180.77539062 C130.18835926 180.62520627 130.18835926 180.62520627 135.84155273 177.25878906 C136.79436144 174.41051661 136.97216723 171.77622563 136.98872375 168.7872467 C136.99587906 167.89707352 137.00303436 167.00690033 137.01040649 166.0897522 C137.0130954 165.12081024 137.0157843 164.15186829 137.01855469 163.15356445 C137.02512589 162.12713333 137.03169708 161.10070221 137.03846741 160.04316711 C137.05817412 156.64759243 137.06985496 153.25206185 137.07983398 149.85644531 C137.08390951 148.69690275 137.08798504 147.53736019 137.09218407 146.34267998 C137.11302994 140.20965631 137.12734016 134.07665494 137.13671875 127.94360352 C137.14780203 121.60366096 137.18222858 115.26406755 137.22189045 108.9242487 C137.24800066 104.05239701 137.25640544 99.18062942 137.26000023 94.30871391 C137.26487779 91.97110056 137.27652481 89.63349125 137.29503822 87.29594612 C137.31931812 84.02814891 137.31848515 80.76126751 137.31152344 77.4934082 C137.3243335 76.52649048 137.33714355 75.55957275 137.3503418 74.56335449 C137.31693461 70.26710275 137.22926072 67.89547199 134.95367432 64.15856934 C132.46173421 61.91715544 131.39961061 61.6269602 128.08764648 61.62988281 C127.16000488 61.62496826 126.23236328 61.62005371 125.27661133 61.61499023 C124.28741699 61.64181885 123.29822266 61.66864746 122.27905273 61.69628906 C120.74498779 61.72009644 120.74498779 61.72009644 119.17993164 61.74438477 C102.10712298 62.24637037 79.16372124 65.76037345 67.16186523 79.12988281 Z " fill="#000000" transform="translate(116.158447265625,45.7412109375)"/>
</svg>
