<svg xmlns="http://www.w3.org/2000/svg" width="920" height="740" viewBox="0 0 920 740">
  <defs>
    <linearGradient id="fbg" x1="0" y1="0" x2=".5" y2="1"><stop offset="0%" stop-color="#e8eaf6"/><stop offset="35%" stop-color="#fce4ec"/><stop offset="70%" stop-color="#e0f7fa"/><stop offset="100%" stop-color="#fff3e0"/></linearGradient>
    <linearGradient id="fl1" x1="0" y1="0" x2="1" y2="0"><stop offset="0%" stop-color="#f48fb1"/><stop offset="100%" stop-color="#ce93d8"/></linearGradient>
    <linearGradient id="fl2" x1="0" y1="0" x2="1" y2="0"><stop offset="0%" stop-color="#80cbc4"/><stop offset="100%" stop-color="#81d4fa"/></linearGradient>
    <linearGradient id="fa1" x1="0" y1="0" x2="0" y2="1"><stop offset="0%" stop-color="#f48fb1" stop-opacity=".18"/><stop offset="100%" stop-color="#f48fb1" stop-opacity="0"/></linearGradient>
    <linearGradient id="fa2" x1="0" y1="0" x2="0" y2="1"><stop offset="0%" stop-color="#80cbc4" stop-opacity=".14"/><stop offset="100%" stop-color="#80cbc4" stop-opacity="0"/></linearGradient>
    <linearGradient id="fp1" x1="0" y1="0" x2="1" y2="0"><stop offset="0%" stop-color="#f48fb1"/><stop offset="100%" stop-color="#ef9a9a"/></linearGradient>
    <linearGradient id="fp2" x1="0" y1="0" x2="1" y2="0"><stop offset="0%" stop-color="#81d4fa"/><stop offset="100%" stop-color="#80cbc4"/></linearGradient>
    <linearGradient id="fp3" x1="0" y1="0" x2="1" y2="0"><stop offset="0%" stop-color="#ce93d8"/><stop offset="100%" stop-color="#e1bee7"/></linearGradient>
    <linearGradient id="fp4" x1="0" y1="0" x2="1" y2="0"><stop offset="0%" stop-color="#ffcc80"/><stop offset="100%" stop-color="#ffe0b2"/></linearGradient>
    <filter id="fs"><feDropShadow dx="0" dy="4" stdDeviation="8" flood-color="#c5cae9" flood-opacity=".22"/></filter>
    <filter id="fgl"><feGaussianBlur stdDeviation="5" result="b"/><feMerge><feMergeNode in="b"/><feMergeNode in="SourceGraphic"/></feMerge></filter>
  </defs>
  <!-- Background -->
  <rect width="920" height="740" rx="26" fill="url(#fbg)"/>
  <!-- Ambient orbs -->
  <circle cx="80" cy="60" r="70" fill="#f8bbd0" opacity=".14"><animate attributeName="cy" values="60;38;60" dur="8s" repeatCount="indefinite"/><animate attributeName="r" values="70;85;70" dur="8s" repeatCount="indefinite"/></circle>
  <circle cx="850" cy="680" r="90" fill="#b2dfdb" opacity=".12"><animate attributeName="cy" values="680;650;680" dur="10s" repeatCount="indefinite"/></circle>
  <circle cx="460" cy="30" r="50" fill="#d1c4e9" opacity=".14"><animate attributeName="cx" values="460;495;460" dur="9s" repeatCount="indefinite"/></circle>
  <circle cx="800" cy="80" r="40" fill="#ffe0b2" opacity=".18"><animate attributeName="cy" values="80;58;80" dur="6s" repeatCount="indefinite"/></circle>
  <circle cx="150" cy="650" r="55" fill="#c8e6c9" opacity=".1"><animate attributeName="cx" values="150;175;150" dur="11s" repeatCount="indefinite"/></circle>
  <circle cx="500" cy="720" r="60" fill="#bbdefb" opacity=".1"><animate attributeName="cy" values="720;695;720" dur="8s" repeatCount="indefinite"/></circle>

  <!-- ===== TOP: Nav bar ===== -->
  <rect x="30" y="26" width="860" height="48" rx="14" fill="#fff" opacity=".6" filter="url(#fs)"/>
  <circle cx="58" cy="50" r="7" fill="#f48fb1" opacity=".6"/><circle cx="78" cy="50" r="7" fill="#ffcc80" opacity=".6"/><circle cx="98" cy="50" r="7" fill="#a5d6a7" opacity=".6"/>
  <rect x="130" y="42" width="100" height="15" rx="8" fill="#e1bee7" opacity=".3"/><rect x="248" y="42" width="70" height="15" rx="8" fill="#b2dfdb" opacity=".3"/><rect x="336" y="42" width="85" height="15" rx="8" fill="#ffe0b2" opacity=".3"/>
  <rect x="790" y="38" width="70" height="24" rx="12" fill="#ce93d8" opacity=".18"/>

  <!-- ===== LINE CHART panel (top-left) ===== -->
  <rect x="30" y="90" width="530" height="280" rx="18" fill="#fff" opacity=".52" filter="url(#fs)"/>
  <rect x="56" y="110" width="150" height="14" rx="7" fill="#d1c4e9" opacity=".45"/>
  <rect x="220" y="112" width="50" height="10" rx="5" fill="#f8bbd0" opacity=".25"/><rect x="280" y="112" width="50" height="10" rx="5" fill="#b2dfdb" opacity=".25"/>
  <!-- Grid -->
  <g stroke="#e8eaf6" stroke-width="1" opacity=".35"><line x1="80" y1="150" x2="530" y2="150"/><line x1="80" y1="185" x2="530" y2="185"/><line x1="80" y1="220" x2="530" y2="220"/><line x1="80" y1="255" x2="530" y2="255"/><line x1="80" y1="290" x2="530" y2="290"/><line x1="80" y1="325" x2="530" y2="325"/></g>
  <!-- Area fill line 1 -->
  <path d="M80,280 C130,260 180,230 230,245 C280,260 330,200 380,210 C430,220 480,180 530,170 L530,325 L80,325Z" fill="url(#fa1)" opacity=".8"><animate attributeName="d" values="M80,280 C130,260 180,230 230,245 C280,260 330,200 380,210 C430,220 480,180 530,170L530,325 L80,325Z;M80,270 C130,250 180,260 230,230 C280,240 330,210 380,190 C430,200 480,195 530,180L530,325 L80,325Z;M80,280 C130,260 180,230 230,245 C280,260 330,200 380,210 C430,220 480,180 530,170L530,325 L80,325Z" dur="6s" repeatCount="indefinite"/></path>
  <!-- Area fill line 2 -->
  <path d="M80,300 C130,290 180,270 230,280 C280,290 330,250 380,260 C430,270 480,235 530,225 L530,325 L80,325Z" fill="url(#fa2)" opacity=".7"><animate attributeName="d" values="M80,300 C130,290 180,270 230,280 C280,290 330,250 380,260 C430,270 480,235 530,225L530,325 L80,325Z;M80,295 C130,280 180,295 230,270 C280,280 330,260 380,245 C430,255 480,250 530,235L530,325 L80,325Z;M80,300 C130,290 180,270 230,280 C280,290 330,250 380,260 C430,270 480,235 530,225L530,325 L80,325Z" dur="7s" repeatCount="indefinite"/></path>
  <!-- Line 1 -->
  <path d="M80,280 C130,260 180,230 230,245 C280,260 330,200 380,210 C430,220 480,180 530,170" fill="none" stroke="url(#fl1)" stroke-width="2.5" stroke-linecap="round" opacity=".7"><animate attributeName="d" values="M80,280 C130,260 180,230 230,245 C280,260 330,200 380,210 C430,220 480,180 530,170;M80,270 C130,250 180,260 230,230 C280,240 330,210 380,190 C430,200 480,195 530,180;M80,280 C130,260 180,230 230,245 C280,260 330,200 380,210 C430,220 480,180 530,170" dur="6s" repeatCount="indefinite"/></path>
  <!-- Line 2 -->
  <path d="M80,300 C130,290 180,270 230,280 C280,290 330,250 380,260 C430,270 480,235 530,225" fill="none" stroke="url(#fl2)" stroke-width="2.5" stroke-linecap="round" opacity=".6"><animate attributeName="d" values="M80,300 C130,290 180,270 230,280 C280,290 330,250 380,260 C430,270 480,235 530,225;M80,295 C130,280 180,295 230,270 C280,280 330,260 380,245 C430,255 480,250 530,235;M80,300 C130,290 180,270 230,280 C280,290 330,250 380,260 C430,270 480,235 530,225" dur="7s" repeatCount="indefinite"/></path>
  <!-- Animated dots on lines -->
  <circle r="5" fill="#f48fb1" opacity=".7" filter="url(#fgl)"><animateMotion dur="6s" repeatCount="indefinite" path="M80,280 C130,260 180,230 230,245 C280,260 330,200 380,210 C430,220 480,180 530,170"/></circle>
  <circle r="4.5" fill="#80cbc4" opacity=".65" filter="url(#fgl)"><animateMotion dur="7s" repeatCount="indefinite" path="M80,300 C130,290 180,270 230,280 C280,290 330,250 380,260 C430,270 480,235 530,225"/></circle>
  <!-- X axis labels -->
  <rect x="88" y="336" width="28" height="8" rx="4" fill="#d1c4e9" opacity=".3"/><rect x="168" y="336" width="28" height="8" rx="4" fill="#d1c4e9" opacity=".3"/><rect x="248" y="336" width="28" height="8" rx="4" fill="#d1c4e9" opacity=".3"/><rect x="328" y="336" width="28" height="8" rx="4" fill="#d1c4e9" opacity=".3"/><rect x="408" y="336" width="28" height="8" rx="4" fill="#d1c4e9" opacity=".3"/><rect x="488" y="336" width="28" height="8" rx="4" fill="#d1c4e9" opacity=".3"/>

  <!-- ===== MINI CARDS (top-right) ===== -->
  <g filter="url(#fs)">
    <rect x="580" y="90" width="310" height="85" rx="16" fill="#fff" opacity=".55">
      <animate attributeName="y" values="90;84;90" dur="5s" repeatCount="indefinite"/>
    </rect>
    <circle cx="614" cy="118" r="16" fill="#f48fb1" opacity=".25"/><rect x="640" y="110" width="90" height="13" rx="7" fill="#f8bbd0" opacity=".4"/>
    <rect x="606" y="142" width="50" height="18" rx="7" fill="#ce93d8" opacity=".2"/>
    <rect x="670" y="148" width="180" height="7" rx="4" fill="url(#fp1)" opacity=".45"><animate attributeName="width" values="0;180" dur="2s" fill="freeze" begin=".3s"/></rect>
  </g>
  <g filter="url(#fs)">
    <rect x="580" y="190" width="310" height="85" rx="16" fill="#fff" opacity=".55">
      <animate attributeName="y" values="190;183;190" dur="6s" repeatCount="indefinite"/>
    </rect>
    <circle cx="614" cy="218" r="16" fill="#81d4fa" opacity=".25"/><rect x="640" y="210" width="100" height="13" rx="7" fill="#bbdefb" opacity=".4"/>
    <rect x="606" y="242" width="45" height="18" rx="7" fill="#80cbc4" opacity=".2"/>
    <rect x="670" y="248" width="200" height="7" rx="4" fill="url(#fp2)" opacity=".45"><animate attributeName="width" values="0;200" dur="2s" fill="freeze" begin=".6s"/></rect>
  </g>
  <g filter="url(#fs)">
    <rect x="580" y="290" width="310" height="80" rx="16" fill="#fff" opacity=".55">
      <animate attributeName="y" values="290;282;290" dur="7s" repeatCount="indefinite"/>
    </rect>
    <circle cx="614" cy="316" r="16" fill="#ce93d8" opacity=".25"/><rect x="640" y="308" width="80" height="13" rx="7" fill="#e1bee7" opacity=".4"/>
    <rect x="606" y="340" width="55" height="18" rx="7" fill="#d1c4e9" opacity=".2"/>
    <rect x="670" y="346" width="155" height="7" rx="4" fill="url(#fp3)" opacity=".45"><animate attributeName="width" values="0;155" dur="2s" fill="freeze" begin=".9s"/></rect>
  </g>

  <!-- ===== DATA TABLE panel (bottom-left) ===== -->
  <rect x="30" y="390" width="430" height="320" rx="18" fill="#fff" opacity=".5" filter="url(#fs)"/>
  <rect x="56" y="410" width="120" height="14" rx="7" fill="#b2dfdb" opacity=".45"/>
  <!-- Table header -->
  <rect x="56" y="440" width="385" height="28" rx="8" fill="#e8eaf6" opacity=".3"/>
  <rect x="68" y="448" width="60" height="10" rx="5" fill="#d1c4e9" opacity=".4"/><rect x="168" y="448" width="50" height="10" rx="5" fill="#d1c4e9" opacity=".4"/><rect x="258" y="448" width="70" height="10" rx="5" fill="#d1c4e9" opacity=".4"/><rect x="368" y="448" width="50" height="10" rx="5" fill="#d1c4e9" opacity=".4"/>
  <!-- Table rows with staggered fade -->
  <g opacity=".65">
    <rect x="56" y="478" width="385" height="1" fill="#e8eaf6" opacity=".5"/>
    <rect x="68" y="488" width="70" height="9" rx="5" fill="#f8bbd0" opacity=".35"><animate attributeName="opacity" values="0;.35" dur=".5s" fill="freeze" begin=".3s"/></rect><rect x="168" y="488" width="45" height="9" rx="5" fill="#b2dfdb" opacity=".3"/><rect x="258" y="488" width="80" height="9" rx="5" fill="#e1bee7" opacity=".3"/><rect x="368" y="488" width="55" height="9" rx="5" fill="#c8e6c9" opacity=".3"/>
    
    <rect x="56" y="508" width="385" height="1" fill="#e8eaf6" opacity=".5"/>
    <rect x="68" y="518" width="55" height="9" rx="5" fill="#bbdefb" opacity=".35"><animate attributeName="opacity" values="0;.35" dur=".5s" fill="freeze" begin=".5s"/></rect><rect x="168" y="518" width="50" height="9" rx="5" fill="#ffe0b2" opacity=".3"/><rect x="258" y="518" width="65" height="9" rx="5" fill="#f8bbd0" opacity=".3"/><rect x="368" y="518" width="48" height="9" rx="5" fill="#d1c4e9" opacity=".3"/>
    
    <rect x="56" y="538" width="385" height="1" fill="#e8eaf6" opacity=".5"/>
    <rect x="68" y="548" width="65" height="9" rx="5" fill="#c8e6c9" opacity=".35"><animate attributeName="opacity" values="0;.35" dur=".5s" fill="freeze" begin=".7s"/></rect><rect x="168" y="548" width="40" height="9" rx="5" fill="#f8bbd0" opacity=".3"/><rect x="258" y="548" width="75" height="9" rx="5" fill="#bbdefb" opacity=".3"/><rect x="368" y="548" width="52" height="9" rx="5" fill="#ffe0b2" opacity=".3"/>
    
    <rect x="56" y="568" width="385" height="1" fill="#e8eaf6" opacity=".5"/>
    <rect x="68" y="578" width="60" height="9" rx="5" fill="#ffe0b2" opacity=".35"><animate attributeName="opacity" values="0;.35" dur=".5s" fill="freeze" begin=".9s"/></rect><rect x="168" y="578" width="55" height="9" rx="5" fill="#d1c4e9" opacity=".3"/><rect x="258" y="578" width="70" height="9" rx="5" fill="#c8e6c9" opacity=".3"/><rect x="368" y="578" width="45" height="9" rx="5" fill="#f8bbd0" opacity=".3"/>
    
    <rect x="56" y="598" width="385" height="1" fill="#e8eaf6" opacity=".5"/>
    <rect x="68" y="608" width="75" height="9" rx="5" fill="#d1c4e9" opacity=".35"><animate attributeName="opacity" values="0;.35" dur=".5s" fill="freeze" begin="1.1s"/></rect><rect x="168" y="608" width="42" height="9" rx="5" fill="#c8e6c9" opacity=".3"/><rect x="258" y="608" width="60" height="9" rx="5" fill="#ffe0b2" opacity=".3"/><rect x="368" y="608" width="50" height="9" rx="5" fill="#bbdefb" opacity=".3"/>
    
    <rect x="56" y="628" width="385" height="1" fill="#e8eaf6" opacity=".5"/>
    <rect x="68" y="638" width="58" height="9" rx="5" fill="#b2dfdb" opacity=".35"/><rect x="168" y="638" width="48" height="9" rx="5" fill="#f8bbd0" opacity=".3"/><rect x="258" y="638" width="72" height="9" rx="5" fill="#d1c4e9" opacity=".3"/><rect x="368" y="638" width="46" height="9" rx="5" fill="#c8e6c9" opacity=".3"/>
    
    <rect x="56" y="658" width="385" height="1" fill="#e8eaf6" opacity=".5"/>
    <rect x="68" y="668" width="68" height="9" rx="5" fill="#f8bbd0" opacity=".35"/><rect x="168" y="668" width="44" height="9" rx="5" fill="#bbdefb" opacity=".3"/><rect x="258" y="668" width="66" height="9" rx="5" fill="#ffe0b2" opacity=".3"/><rect x="368" y="668" width="55" height="9" rx="5" fill="#e1bee7" opacity=".3"/>
    
    <rect x="56" y="688" width="385" height="1" fill="#e8eaf6" opacity=".5"/>
  </g>

  <!-- ===== CODE PANEL (bottom-right) ===== -->
  <rect x="480" y="390" width="410" height="320" rx="18" fill="#1e1e2e" opacity=".08" filter="url(#fs)"/>
  <rect x="480" y="390" width="410" height="320" rx="18" fill="#fff" opacity=".5"/>
  <!-- Title bar -->
  <rect x="480" y="390" width="410" height="34" rx="18" fill="#ede7f6" opacity=".4"/>
  <circle cx="504" cy="407" r="6" fill="#f48fb1" opacity=".5"/><circle cx="522" cy="407" r="6" fill="#ffcc80" opacity=".5"/><circle cx="540" cy="407" r="6" fill="#a5d6a7" opacity=".5"/>
  <rect x="600" y="401" width="100" height="10" rx="5" fill="#d1c4e9" opacity=".3"/>
  <!-- Code lines with syntax-color feel -->
  <g opacity=".55">
    <rect x="508" y="440" width="75" height="9" rx="4" fill="#ce93d8" opacity=".5"/><rect x="592" y="440" width="50" height="9" rx="4" fill="#81d4fa" opacity=".4"/><rect x="650" y="440" width="90" height="9" rx="4" fill="#a5d6a7" opacity=".35"/>
    <rect x="524" y="460" width="60" height="9" rx="4" fill="#f48fb1" opacity=".45"/><rect x="592" y="460" width="110" height="9" rx="4" fill="#b2dfdb" opacity=".35"/>
    <rect x="524" y="480" width="85" height="9" rx="4" fill="#ffcc80" opacity=".4"/><rect x="618" y="480" width="70" height="9" rx="4" fill="#d1c4e9" opacity=".35"/><rect x="696" y="480" width="45" height="9" rx="4" fill="#81d4fa" opacity=".3"/>
    <rect x="524" y="500" width="50" height="9" rx="4" fill="#a5d6a7" opacity=".4"/><rect x="582" y="500" width="95" height="9" rx="4" fill="#f8bbd0" opacity=".35"/>
    <rect x="540" y="520" width="70" height="9" rx="4" fill="#81d4fa" opacity=".45"/><rect x="618" y="520" width="60" height="9" rx="4" fill="#ce93d8" opacity=".35"/><rect x="686" y="520" width="80" height="9" rx="4" fill="#ffe0b2" opacity=".3"/>
    <rect x="540" y="540" width="90" height="9" rx="4" fill="#b2dfdb" opacity=".4"/><rect x="638" y="540" width="55" height="9" rx="4" fill="#ef9a9a" opacity=".35"/>
    <rect x="524" y="560" width="40" height="9" rx="4" fill="#ffcc80" opacity=".4"/><rect x="572" y="560" width="105" height="9" rx="4" fill="#d1c4e9" opacity=".35"/>
    <rect x="508" y="580" width="55" height="9" rx="4" fill="#ce93d8" opacity=".45"/>
    <rect x="508" y="604" width="75" height="9" rx="4" fill="#f48fb1" opacity=".45"/><rect x="592" y="604" width="65" height="9" rx="4" fill="#81d4fa" opacity=".4"/>
    <rect x="524" y="624" width="95" height="9" rx="4" fill="#a5d6a7" opacity=".4"/><rect x="628" y="624" width="50" height="9" rx="4" fill="#ffe0b2" opacity=".35"/>
    <rect x="524" y="644" width="60" height="9" rx="4" fill="#b2dfdb" opacity=".4"/><rect x="592" y="644" width="85" height="9" rx="4" fill="#f8bbd0" opacity=".35"/>
    <rect x="508" y="664" width="45" height="9" rx="4" fill="#ce93d8" opacity=".45"/><rect x="562" y="664" width="70" height="9" rx="4" fill="#80cbc4" opacity=".35"/>
    <rect x="508" y="684" width="80" height="9" rx="4" fill="#ffcc80" opacity=".4"/><rect x="596" y="684" width="55" height="9" rx="4" fill="#d1c4e9" opacity=".35"/>
  </g>
  <!-- Typing cursor -->
  <rect x="508" y="700" width="2" height="12" rx="1" fill="#ce93d8" opacity=".6"><animate attributeName="opacity" values=".6;0;.6" dur="1.2s" repeatCount="indefinite"/></rect>

  <!-- ===== FLOATING SPARKLES ===== -->
  <circle cx="180" cy="160" r="3" fill="#f48fb1" opacity="0"><animate attributeName="opacity" values="0;.85;0" dur="3s" repeatCount="indefinite"/><animate attributeName="cy" values="160;145;160" dur="3s" repeatCount="indefinite"/></circle>
  <circle cx="750" cy="45" r="2.5" fill="#81d4fa" opacity="0"><animate attributeName="opacity" values="0;.7;0" dur="4s" repeatCount="indefinite" begin="1s"/></circle>
  <circle cx="870" cy="400" r="2" fill="#ce93d8" opacity="0"><animate attributeName="opacity" values="0;.8;0" dur="2.5s" repeatCount="indefinite" begin=".5s"/></circle>
  <circle cx="350" cy="720" r="2.8" fill="#a5d6a7" opacity="0"><animate attributeName="opacity" values="0;.7;0" dur="3.5s" repeatCount="indefinite" begin="2s"/></circle>
  <circle cx="680" cy="720" r="2.5" fill="#ffcc80" opacity="0"><animate attributeName="opacity" values="0;.8;0" dur="4s" repeatCount="indefinite" begin="1.5s"/></circle>
  <circle cx="900" cy="250" r="2" fill="#f48fb1" opacity="0"><animate attributeName="opacity" values="0;.6;0" dur="3.2s" repeatCount="indefinite" begin="2.5s"/></circle>
  <circle cx="30" cy="360" r="2.5" fill="#81d4fa" opacity="0"><animate attributeName="opacity" values="0;.7;0" dur="3.8s" repeatCount="indefinite" begin="1.2s"/></circle>
  <circle cx="560" cy="385" r="2" fill="#a5d6a7" opacity="0"><animate attributeName="opacity" values="0;.65;0" dur="2.8s" repeatCount="indefinite" begin=".8s"/></circle>
</svg>
